<?xml version="1.0" encoding="utf-8"?>
<!-- Generator: Adobe Illustrator 16.0.0, SVG Export Plug-In . SVG Version: 6.00 Build 0)  -->
<!DOCTYPE svg PUBLIC "-//W3C//DTD SVG 1.1//EN" "http://www.w3.org/Graphics/SVG/1.1/DTD/svg11.dtd">
<svg version="1.1" id="Calque_1" xmlns="http://www.w3.org/2000/svg" xmlns:xlink="http://www.w3.org/1999/xlink" x="0px" y="0px"
	 width="500px" height="500px" viewBox="0 0 500 500" enable-background="new 0 0 500 500" xml:space="preserve">
<g id="Calque_2">
	<circle fill="#FFFFFF" cx="250" cy="250" r="240.5"/>
</g>
<g>
	<path d="M439.849,245.46c4.1,0.254,5.258,2.833,5.567,6.401c0.636,7.262,0.227,14.408-1.735,21.438
		c-0.334,1.193-0.218,1.816,0.783,2.824c1.109,1.117,2.15,3.125,1.963,4.582c-2.74,21.041-8.802,40.99-20.282,59.035
		c-10.985,17.264-25.704,30.564-43.511,40.504c-19.642,10.961-40.853,17.219-62.929,20.848c-18.362,3.018-36.86,4.398-55.461,4.398
		c-2.389,0-4.007,0.547-5.38,2.707c-2.033,3.197-4.166,6.494-6.908,9.049c-5.291,4.93-11.625,5.705-18.323,2.961
		c-3.112-1.275-6.703,0.557-7.26,3.789c-1.068,6.186-5.835,11.459-11.998,12.613c-4.364,0.818-8.833,1.156-13.273,1.471
		c-3.432,0.24-6.584-0.936-9.3-3.01c-1.106-0.844-1.974-0.883-3.03-0.145c-0.263,0.186-0.559,0.338-0.861,0.449
		c-3.074,1.145-5.01,2.865-4.036,6.604c0.278,1.07-0.221,2.406-0.567,3.559c-0.754,2.514-2.769,3.93-5.04,3.705
		c-2.415-0.238-4.158-2.104-4.397-4.729c-0.035-0.389-0.004-0.783-0.004-1.367c-3.782,0.482-5.979-1.184-6.729-5.34
		c-1.295,1.053-2.416,1.777-3.301,2.723c-2.05,2.188-3.96,4.506-5.976,6.729c-2.199,2.422-4.854,2.67-7.069,0.73
		c-2.085-1.824-2.11-4.734-0.031-7.125c2.181-2.51,4.354-5.023,6.586-7.484c4.367-4.816,11.462-6.646,17.587-4.232
		c2.086,0.822,3.677,0.721,5.392-0.52c0.584-0.424,1.263-0.734,1.932-1.018c2.019-0.85,2.911-1.949,2.735-4.512
		c-0.379-5.514,5.16-11.363,11.546-12.676c4.365-0.898,8.756-1.732,13.174-2.297c4.313-0.549,8.266,0.813,11.442,3.717
		c1.666,1.523,2.757,0.41,4.125-0.063c1.295-0.447,1.976-1.15,1.854-2.674c-0.114-1.42,0.118-2.867,0.209-4.51
		c-37.628-2.725-73.844-10.402-107.304-29.178c0.441,0.875,0.853,1.766,1.33,2.619c5.927,10.611,12.19,21.053,17.702,31.877
		c4.949,9.721,7.338,20.242,6.935,31.266c-0.047,1.295-0.094,2.602-0.295,3.879c-0.408,2.604-2.718,4.434-5.137,4.18
		c-2.542-0.266-4.313-2.314-4.358-4.996c-0.069-4.047,0.167-8.129-0.304-12.127c-1.25-10.6-5.901-19.988-11.061-29.139
		c-5.214-9.246-10.502-18.451-15.731-27.691c-0.637-1.125-1.309-2.295-1.619-3.529c-1.302-5.188-4.862-8.369-8.965-11.502
		c-16.813-12.836-30.935-28.326-43.551-45.234c-1.443-1.934-1.894-3.971-0.436-6.066c1.389-1.998,3.396-2.314,5.629-1.785
		c0.541,0.127,1.081,0.254,2.145,0.506c-1.378-1.701-2.467-3.029-3.539-4.371c-6.869-8.598-12.192-17.982-14.311-28.912
		c-1.17-6.035-1.128-12.104,0.444-18.09c1.222-4.654,4.88-5.81,8.638-2.771c2.77,2.24,5.513,4.514,8.647,6.545
		c-0.396-0.83-0.771-1.67-1.193-2.484c-7.378-14.252-12.162-29.158-11.43-45.443c0.091-2.022,0.245-4.052,0.537-6.054
		c0.613-4.206,4.517-5.869,7.967-3.321c6.194,4.576,12.303,9.268,18.449,13.91c0.958,0.725,1.922,1.444,3.128,2.349
		c0.884-2.606,1.695-4.953,2.478-7.309c3.216-9.685,7.798-18.692,13.541-27.108c0.871-1.277,0.932-2.337,0.484-3.801
		c-5.741-18.78-3.436-36.498,7.114-53.125c0.646-1.018,1.042-2.377,1.058-3.583c0.263-21.421,6.306-41.051,18.102-58.917
		c2.145-3.249,3.428-3.737,7.149-2.875c16.245,3.762,31.469,10.024,45.677,18.741c1.462,0.896,2.723,1.283,4.49,0.688
		c18.173-6.116,36.964-9.028,56.003-10.616c18.381-1.534,36.765-1.56,55.146-0.003c19.688,1.668,39.066,4.904,57.748,11.586
		c1.553,0.555,2.506,0.288,3.783-0.892c5.768-5.328,11.635-10.556,17.63-15.626c3.4-2.875,5.439-2.538,8.626,0.685
		c5.916,5.983,10.776,12.725,14.729,20.148c0.418,0.786,1.375,1.728,2.162,1.808c16.297,1.654,27.563,10.668,34.476,24.851
		c11.809,24.236,9.19,47.477-6.871,69.041c-2.698,3.624-6.595,6.354-9.992,9.55c2.174,5.48,4.51,11.368,6.964,17.552
		c1.271-3.907,2.54-7.611,3.672-11.357c0.729-2.409,1.779-4.402,4.581-4.68c2.946-0.292,4.304,1.658,5.51,3.923
		c7.14,13.402,8.638,27.672,6.626,42.495C440.317,241.884,440.101,243.56,439.849,245.46z M254.702,331.695
		c-0.982-0.223-1.848-0.434-2.718-0.611c-36.451-7.469-60.847-43.574-54.189-80.202c6.411-35.268,37.812-59.766,73.518-57.354
		c39.151,2.644,68.533,37.519,64.425,76.468c-3.747,35.533-32.971,62.168-68.538,62.537c-0.904,0.01-2.552,0.727-2.572,1.17
		c-0.08,1.729-1.547,3.594,0.836,5.225c6.19,4.238,8.649,10.279,7.637,17.711c-0.371,2.73-0.898,5.441-1.197,8.18
		c-0.915,8.342-5.311,13.875-13.197,16.689c-2.02,0.721-2.326,3.334-1.057,5.047c1.661,2.238,3.238,4.645,4.259,7.213
		c0.653,1.643,1.177,2.352,2.97,2.24c12.537-0.771,25.123-1.035,37.609-2.289c23.103-2.32,45.574-7.352,66.744-17.324
		c29.813-14.047,50.515-36.289,61.078-67.666c1.633-4.85,2.875-9.828,4.297-14.748c-1.429,0.561-2.306,1.381-3.247,2.119
		c-2.056,1.611-4.68,1.506-6.404-0.211c-1.729-1.723-1.886-4.324-0.361-6.416c0.476-0.654,1.021-1.26,1.512-1.904
		c4.203-5.52,7.199-11.598,8.831-19.029c-2.337,2.449-4.548,3.398-7.112,1.727c-2.71-1.766-2.349-4.309-1.629-6.951
		c0.637-2.344,1.169-4.717,1.697-7.088c2.457-11.014,4.574-22.078,3.609-33.447c-0.275-3.271-1.022-6.502-1.556-9.751
		c-0.242,0.027-0.486,0.054-0.729,0.082c-2.42,7.464-4.829,14.931-7.266,22.391c-1.382,4.235-3.179,5.698-6.133,5.076
		c-2.938-0.619-4.004-2.7-3.636-7.147c1.045-12.614-1.512-24.477-7.319-35.695c-0.779-1.504-1.445-2.045-3.324-1.681
		c-12.68,2.454-24.301-0.214-33.516-9.317c-14.514-14.338-20.327-32.036-17.836-52.315c0.519-4.219,1.693-8.358,2.643-12.903
		c-4.188-1.811-8.522-3.683-12.96-5.6c-0.68,1.363-1.245,2.262-1.597,3.238c-2.654,7.388-5.328,14.77-7.862,22.199
		c-0.999,2.928-3.115,4.605-5.687,4.035c-2.906-0.645-4.341-3.127-3.619-6.362c0.299-1.343,0.614-2.698,1.096-3.982
		c0.599-1.597,0.302-2.506-1.416-3.119c-2.746-0.979-5.395-2.219-8.106-3.292c-14.199-5.617-28.82-9.269-44.181-9.622
		c-15.404-0.354-30.563,1.739-45.665,4.434c-0.997,0.178-1.979,0.441-3.175,0.711c1.759,2.884,3.408,5.478,4.945,8.137
		c1.694,2.929,1.096,5.814-1.381,7.193c-2.587,1.44-5.03,0.446-6.915-2.409c-3.838-5.813-7.807-11.541-11.8-17.249
		c-0.417-0.595-1.562-1.325-2.025-1.139c-3.189,1.285-6.288,2.797-9.568,4.306c0.697,0.968,1.114,1.554,1.539,2.135
		c7.585,10.375,11.717,21.954,12.12,34.827c0.967,30.946-21.906,60.642-56.436,60.989c-0.808,0.008-1.901,0.799-2.359,1.537
		c-2.439,3.923-4.815,7.894-7.021,11.951c-1.7,3.128-3.81,5.044-7.924,3.544c-0.009,6.052-1.061,11.939,2.345,17.215
		c1.843,2.855,3.93,5.559,5.97,8.281c4.171,5.57,7.382,11.424,6.595,18.771c-0.84,7.836-4.001,14.73-8.756,20.805
		c-5.689,7.268-11.803,14.201-17.737,21.275c-7.737,9.227-11.851,19.438-8.956,31.707c0.522,2.211,1.473,3.693,3.378,4.943
		c16.88,11.084,35.117,19.105,54.53,24.561c19.76,5.551,39.967,8.258,60.383,9.727c1.85,0.137,2.832-0.598,3.638-2.096
		c2.406-4.471,5.821-7.709,10.906-9.014c0.887-0.227,1.821-1.064,2.307-1.877c0.707-1.182-0.176-1.965-1.138-2.768
		c-4.414-3.688-6.395-8.461-5.914-14.207c0.364-4.363,0.761-8.725,1.18-13.082c0.62-6.453,4.083-10.967,9.729-13.875
		C255.001,336.436,255.171,336.256,254.702,331.695z M266.184,322.949c33.581,0.016,60.294-26.6,60.347-60.123
		c0.053-33.037-26.865-59.812-60.156-59.838c-33.376-0.027-59.98,26.797-60.006,60.506
		C206.342,296.068,233.369,322.932,266.184,322.949z M59.656,215.959c-0.194,0.117-0.388,0.234-0.581,0.352
		c0.143,2.172,0.195,4.354,0.442,6.514c1.554,13.578,7.021,25.733,13.891,37.316c4.133,6.971,8.611,13.734,12.907,20.607
		c2.008,3.215,0.897,7.008-2.485,7.514c-1.583,0.236-3.723-0.473-5.012-1.502c-7.792-6.219-15.409-12.656-23.092-19.014
		c-0.64-0.529-1.331-0.996-1.999-1.492c-0.233,0.121-0.466,0.244-0.7,0.367c0.493,2.918,0.74,5.906,1.522,8.746
		c3.334,12.102,10.479,21.852,19.502,30.27c3.476,3.244,7.489,5.916,11.281,8.816c1.999,1.529,2.729,3.596,1.929,5.75
		c-0.808,2.178-2.672,3.285-5.249,2.949c-1.195-0.154-2.359-0.563-3.532-0.875c-2.11-0.564-4.217-1.139-6.325-1.709
		c8.741,11.184,18.429,21.125,29.665,30.113c-0.324-14.242,4.065-22.496,12.445-32.912c3.399-4.225,7.082-8.219,10.606-12.344
		c4.428-5.182,8.792-10.406,11.472-16.789c2.676-6.373,2.749-12.438-1.886-18.049c-1.187-1.436-2.347-2.91-3.357-4.473
		c-2.107-3.258-4.485-6.414-6.067-9.924c-2.719-6.024-2.002-12.556-1.706-18.939c0.078-1.681-0.291-2.438-1.934-2.945
		c-3.774-1.166-4.726-2.88-4.064-6.765c0.761-4.474,1.492-8.955,2.362-13.409c0.303-1.554-0.01-2.482-1.372-3.421
		c-6.211-4.284-11.313-9.68-15.478-15.969c-0.329-0.496-0.747-0.932-1.29-1.602c-0.701,1.135-1.267,2.007-1.791,2.904
		c-5.77,9.89-9.777,20.456-12.187,31.643c-0.954,4.427-4.583,5.819-8.195,3.16c-2.22-1.634-4.394-3.331-6.594-4.991
		C68.413,222.556,64.033,219.259,59.656,215.959z M142.004,174.479c0.471-0.613,0.887-1.095,1.238-1.622
		c9.453-14.154,19.033-28.226,28.291-42.507c4.647-7.169,10.78-12.44,18.204-16.383c13.344-7.089,27.791-10.68,42.553-13.145
		c19.75-3.298,39.636-4.144,59.623-2.976c16.399,0.959,32.553,3.29,48.271,8.239c13.213,4.16,24.83,10.706,34.485,20.928
		c10.798,11.428,22.176,22.307,33.305,33.421c0.604,0.604,1.245,1.172,1.73,1.628c3.5-3.686,6.818-7.178,10.296-10.839
		c-0.247-0.212-0.833-0.653-1.348-1.167c-12.278-12.258-24.585-24.489-36.807-36.804c-6.063-6.108-12.981-10.968-20.622-14.849
		c-17.567-8.923-36.438-13.412-55.797-16.04c-31.384-4.259-62.729-3.763-93.98,1.427c-13.459,2.236-26.631,5.552-39.163,11.09
		c-8.167,3.61-14.988,8.617-19.861,16.456c-6.972,11.214-14.594,22.023-21.926,33.014c-2.506,3.756-4.976,7.537-7.363,11.157
		C129.475,161.885,135.637,168.08,142.004,174.479z M185.263,128.204c-1.818,2.295-3.229,3.845-4.382,5.567
		c-11.232,16.775-22.414,33.583-33.627,50.369c-2.397,3.59-5.449,3.928-8.486,0.915c-8.175-8.109-16.331-16.239-24.463-24.392
		c-2.938-2.945-3.062-4.683-0.77-8.115c6.934-10.382,13.876-20.758,20.806-31.144c1.643-2.462,3.25-4.947,5.205-7.928
		c-5.375,1.26-9.746,3.248-13.891,5.785c-26.015,15.925-30.785,53.861-9.886,76.538c17.745,19.255,45.729,20.825,65,3.627
		c15.994-14.273,20.93-39.752,11.363-59.435C190.244,136.106,187.785,132.495,185.263,128.204z M361.478,127.387
		c-0.408,1.32-0.625,1.913-0.774,2.522c-1.804,7.344-2.121,14.749-0.703,22.184c2.177,11.412,7.084,21.528,16.065,28.979
		c16.637,13.803,42.746,3.522,47.323-18.601c-3.171,2.957-6.178,6.083-9.229,9.162c-3.072,3.097-5.459,3.099-8.537,0.028
		c-10.155-10.136-20.31-20.276-30.447-30.431C370.719,136.767,366.302,132.266,361.478,127.387z M114.025,115.312
		c1.156-0.599,1.59-0.753,1.941-1.017c8.759-6.578,18.562-10.476,29.473-11.615c0.761-0.08,1.684-0.627,2.144-1.245
		c3.045-4.092,6.788-7.387,11.104-10.049c2.437-1.503,4.925-2.921,7.611-4.508c-11.431-6.493-23.238-11.287-35.725-14.362
		c-0.625-0.154-1.847,0.704-2.283,1.406c-4.822,7.754-8.513,16.04-10.793,24.88C116.15,104.025,115.259,109.365,114.025,115.312z
		 M383.642,100.362c14.6,14.795,29.164,29.557,43.891,44.482c0.301-8.199-1.118-15.863-4.215-23.188
		c-4.157-9.833-10.479-17.701-20.794-21.575C395.966,97.619,389.405,97.819,383.642,100.362z M213.613,114.581
		c0.004,0.249,0.009,0.497,0.013,0.746c6.047-1.035,12.082-2.148,18.144-3.086c14.037-2.171,28.131-3.507,42.359-2.561
		c15.609,1.038,30.431,5.239,44.827,11.146c2.285,0.938,4.579,1.853,6.935,2.805c1.532-3.589,2.949-6.911,4.536-10.629
		C291.1,104.282,252.29,104.901,213.613,114.581z M373.776,75.02c-4.786,4.302-9.049,8.134-13.402,12.048
		c4.459,2.451,8.414,4.639,12.392,6.789c0.451,0.244,1.137,0.525,1.52,0.354c3.201-1.423,6.355-2.948,9.955-4.646
		C380.801,84.785,377.471,80.156,373.776,75.02z M250.277,368.484c4.459-2.559,5.413-2.381,9.197,1.57
		c3.139-2.984,5.331-16.566,3.188-19.756c-3.876,3.654-6.502,3.293-9.498-1.313C251.216,350.859,249.263,363.707,250.277,368.484z
		 M243.727,411.291c4.106-2.178,9.651-11.307,8.8-14.545c-2.951,1.205-5.068-0.244-7.25-2.963c-2.67,4.131-5.129,7.932-7.666,11.854
		C241.965,406.467,242.6,407.066,243.727,411.291z M199.151,419.631c3.703,3.256,3.874,3.998,2.013,9.107
		c4.425-0.594,8.635-1.158,12.845-1.725c0.028-0.246,0.056-0.494,0.084-0.74c-3.341-2.246-3.783-5.096-1.359-8.906
		C207.832,418.184,203.581,418.893,199.151,419.631z M138.146,219.779c-3.239-0.984-6.131-1.863-9.214-2.8
		c-0.324,1.768-0.606,3.26-0.869,4.755c-0.852,4.838-0.857,4.877,4.047,5.895c0.569,0.118,1.574-0.3,1.888-0.786
		C135.438,224.619,136.701,222.282,138.146,219.779z"/>
	<path fill="#FFFFFF" d="M254.702,331.695c0.469,4.563,0.299,4.74-3.414,6.652c-5.645,2.908-9.107,7.422-9.728,13.875
		c-0.419,4.359-0.815,8.721-1.18,13.082c-0.479,5.748,1.5,10.52,5.916,14.207c0.961,0.805,1.844,1.586,1.137,2.77
		c-0.484,0.813-1.42,1.648-2.308,1.877c-5.084,1.305-8.5,4.543-10.906,9.012c-0.806,1.5-1.788,2.232-3.638,2.098
		c-20.416-1.471-40.624-4.178-60.383-9.729c-19.413-5.453-37.65-13.477-54.53-24.559c-1.905-1.252-2.856-2.732-3.378-4.943
		c-2.896-12.271,1.218-22.48,8.956-31.707c5.934-7.074,12.048-14.01,17.737-21.275c4.755-6.074,7.917-12.969,8.756-20.805
		c0.787-7.35-2.424-13.201-6.595-18.773c-2.04-2.723-4.126-5.426-5.97-8.281c-3.406-5.275-2.354-11.163-2.345-17.214
		c4.114,1.5,6.225-0.417,7.924-3.544c2.206-4.058,4.582-8.028,7.021-11.951c0.458-0.738,1.551-1.529,2.359-1.537
		c34.529-0.347,57.403-30.042,56.436-60.989c-0.402-12.873-4.534-24.452-12.12-34.827c-0.425-0.581-0.841-1.167-1.539-2.135
		c3.281-1.509,6.379-3.021,9.568-4.306c0.463-0.187,1.609,0.544,2.025,1.139c3.994,5.708,7.962,11.436,11.8,17.249
		c1.885,2.854,4.328,3.849,6.915,2.409c2.477-1.379,3.075-4.265,1.381-7.193c-1.538-2.659-3.186-5.253-4.945-8.137
		c1.196-0.271,2.178-0.533,3.175-0.711c15.103-2.695,30.26-4.788,45.665-4.434c15.359,0.353,29.979,4.005,44.181,9.622
		c2.713,1.073,5.36,2.313,8.106,3.292c1.717,0.613,2.014,1.522,1.416,3.119c-0.481,1.285-0.797,2.639-1.096,3.982
		c-0.723,3.235,0.713,5.718,3.619,6.362c2.569,0.57,4.688-1.107,5.687-4.035c2.534-7.429,5.208-14.811,7.862-22.199
		c0.352-0.976,0.917-1.875,1.597-3.238c4.438,1.917,8.771,3.789,12.96,5.6c-0.949,4.545-2.124,8.684-2.643,12.903
		c-2.491,20.279,3.321,37.977,17.836,52.315c9.215,9.103,20.836,11.771,33.516,9.317c1.879-0.364,2.545,0.177,3.324,1.681
		c5.808,11.219,8.364,23.081,7.319,35.695c-0.368,4.447,0.697,6.528,3.636,7.147c2.954,0.623,4.751-0.84,6.133-5.076
		c2.436-7.459,4.845-14.927,7.265-22.391c0.243-0.027,0.487-0.054,0.729-0.082c0.532,3.249,1.279,6.48,1.556,9.751
		c0.964,11.369-1.152,22.433-3.609,33.448c-0.528,2.371-1.062,4.744-1.697,7.086c-0.72,2.645-1.081,5.188,1.629,6.953
		c2.563,1.67,4.775,0.723,7.112-1.727c-1.633,7.432-4.628,13.51-8.831,19.029c-0.491,0.645-1.036,1.25-1.513,1.902
		c-1.522,2.094-1.366,4.693,0.362,6.416c1.725,1.717,4.349,1.824,6.404,0.211c0.94-0.738,1.817-1.559,3.247-2.119
		c-1.422,4.92-2.664,9.898-4.297,14.748c-10.563,31.377-31.267,53.619-61.078,67.666c-21.17,9.975-43.644,15.004-66.744,17.324
		c-12.486,1.256-25.072,1.52-37.609,2.291c-1.794,0.109-2.315-0.6-2.97-2.242c-1.021-2.568-2.598-4.975-4.259-7.213
		c-1.271-1.711-0.964-4.326,1.057-5.047c7.888-2.814,12.282-8.348,13.197-16.688c0.299-2.738,0.825-5.449,1.196-8.18
		c1.015-7.432-1.444-13.475-7.637-17.713c-2.383-1.631-0.914-3.496-0.836-5.223c0.021-0.445,1.668-1.162,2.573-1.17
		c35.567-0.371,64.791-27.006,68.538-62.537c4.107-38.951-25.273-73.826-64.426-76.469c-35.705-2.411-67.106,22.086-73.518,57.354
		c-6.657,36.627,17.738,72.732,54.189,80.203C252.854,331.262,253.72,331.473,254.702,331.695z M318.38,366.176
		c0.081,1.736,0.094,3.361,0.241,4.975c0.975,10.607,8.572,17.09,18.729,15.824c6.265-0.779,10.513-4.729,13.256-10
		c2.564-4.93,4.521-10.203,6.441-15.436c1.997-5.451,4.704-10.285,9.514-13.748c3.219-2.318,6.378-4.719,9.581-7.061
		c1.959-1.432,2.56-3.348,1.797-5.563c-0.741-2.152-2.446-3.15-4.714-3.125c-0.728,0.008-1.476,0.033-2.175,0.205
		c-6.021,1.486-10.315-0.414-13.198-6.061c-1.586-3.109-5.008-3.373-7.623-1.074c-0.548,0.48-1.037,1.027-1.561,1.537
		c-4.623,4.502-10.136,6.203-16.296,4.301c-3.43-1.059-6.625-2.943-9.821-4.652c-2.011-1.074-3.875-1.223-5.693,0.088
		c-1.769,1.273-2.23,3.133-1.701,5.201c0.584,2.275,1.207,4.543,1.885,6.793c2.131,7.076,3.019,14.24,1.853,21.605
		C318.564,362.063,318.538,364.184,318.38,366.176z M366.714,290.375c0.007-3.316-2.322-5.393-5.536-5.131
		c-6.938,0.566-13.862,1.273-20.8,1.854c-2.136,0.18-3.78,1.035-4.604,3.006c-0.826,1.982-0.229,3.781,1.131,5.398
		c4.377,5.205,8.695,10.457,13.096,15.641c3.121,3.676,7.037,3.074,8.908-1.357c2.422-5.738,4.762-11.512,7.115-17.277
		C366.356,291.693,366.569,290.828,366.714,290.375z M393.751,269.574c0.043-4.014-1.144-8.223-3.117-11.055
		c-4.383-6.287-11.854-6.63-16.604-0.76c-5.189,6.414-4.878,18.332,0.641,24.416c4.208,4.641,10.752,4.52,14.897-0.23
		C392.675,278.385,393.646,274.131,393.751,269.574z"/>
	<path fill="#F49819" d="M266.184,322.949c-32.814-0.018-59.841-26.881-59.816-59.455c0.025-33.709,26.629-60.534,60.007-60.506
		c33.289,0.027,60.208,26.803,60.155,59.838C326.478,296.35,299.765,322.965,266.184,322.949z M259.983,267.682
		c0.115,5.188,1.329,9.727,4.619,13.533c4.845,5.605,12.473,5.717,17.463,0.262c6.398-6.998,6.418-20.33,0.037-27.387
		c-5.168-5.717-13.146-5.396-17.92,0.682C261.134,258.654,260.05,263.133,259.983,267.682z"/>
	<path fill="#634595" d="M59.656,215.959c4.377,3.299,8.756,6.597,13.131,9.899c2.2,1.661,4.374,3.357,6.594,4.991
		c3.611,2.659,7.241,1.268,8.195-3.16c2.409-11.187,6.417-21.753,12.187-31.643c0.523-0.897,1.089-1.77,1.791-2.904
		c0.543,0.669,0.961,1.105,1.29,1.602c4.164,6.29,9.267,11.686,15.478,15.969c1.362,0.939,1.675,1.867,1.372,3.421
		c-0.87,4.454-1.601,8.935-2.362,13.409c-0.661,3.885,0.291,5.6,4.064,6.765c1.643,0.507,2.012,1.264,1.934,2.945
		c-0.296,6.384-1.013,12.915,1.706,18.94c1.582,3.508,3.959,6.664,6.067,9.922c1.011,1.563,2.171,3.037,3.357,4.475
		c4.635,5.609,4.562,11.674,1.886,18.047c-2.681,6.383-7.044,11.607-11.472,16.789c-3.524,4.125-7.207,8.119-10.606,12.344
		c-8.38,10.416-12.769,18.672-12.445,32.912c-11.235-8.988-20.923-18.93-29.665-30.111c2.108,0.568,4.215,1.145,6.325,1.707
		c1.173,0.313,2.336,0.723,3.532,0.877c2.577,0.336,4.441-0.771,5.249-2.949c0.8-2.156,0.07-4.223-1.929-5.75
		c-3.792-2.9-7.805-5.572-11.281-8.816c-9.022-8.418-16.167-18.17-19.502-30.271c-0.782-2.84-1.029-5.826-1.522-8.746
		c0.233-0.121,0.466-0.244,0.7-0.365c0.667,0.496,1.358,0.963,1.999,1.492c7.683,6.355,15.3,12.795,23.092,19.014
		c1.29,1.029,3.429,1.738,5.012,1.502c3.382-0.508,4.493-4.299,2.485-7.514c-4.295-6.875-8.773-13.639-12.907-20.607
		c-6.87-11.584-12.336-23.739-13.891-37.317c-0.247-2.16-0.299-4.342-0.442-6.514C59.269,216.194,59.462,216.076,59.656,215.959z"/>
	<path fill="#634595" d="M142.004,174.479c-6.367-6.4-12.53-12.595-18.871-18.969c2.388-3.62,4.857-7.401,7.363-11.157
		c7.332-10.99,14.955-21.8,21.926-33.014c4.873-7.839,11.694-12.846,19.861-16.456c12.531-5.539,25.703-8.854,39.163-11.09
		c31.25-5.19,62.598-5.687,93.98-1.427c19.358,2.627,38.229,7.116,55.797,16.04c7.641,3.88,14.561,8.741,20.622,14.849
		c12.222,12.315,24.527,24.545,36.807,36.804c0.515,0.513,1.101,0.954,1.348,1.167c-3.478,3.661-6.796,7.154-10.296,10.839
		c-0.485-0.456-1.127-1.024-1.73-1.628c-11.129-11.114-22.507-21.993-33.305-33.421c-9.655-10.222-21.272-16.768-34.485-20.928
		c-15.719-4.95-31.871-7.28-48.271-8.239c-19.986-1.168-39.873-0.322-59.624,2.976c-14.762,2.465-29.208,6.056-42.553,13.145
		c-7.424,3.943-13.557,9.214-18.204,16.383c-9.258,14.281-18.837,28.353-28.291,42.507
		C142.892,173.385,142.476,173.867,142.004,174.479z"/>
	<path fill="#F49819" d="M185.263,128.204c2.521,4.291,4.98,7.901,6.87,11.788c9.566,19.683,4.631,45.162-11.363,59.435
		c-19.271,17.198-47.256,15.628-65-3.627c-20.898-22.676-16.128-60.613,9.886-76.538c4.145-2.537,8.516-4.525,13.891-5.785
		c-1.955,2.98-3.562,5.466-5.205,7.928c-6.93,10.385-13.873,20.762-20.806,31.144c-2.292,3.432-2.168,5.169,0.77,8.115
		c8.132,8.153,16.288,16.282,24.463,24.392c3.037,3.013,6.088,2.675,8.486-0.915c11.213-16.787,22.395-33.594,33.627-50.369
		C182.034,132.049,183.445,130.499,185.263,128.204z"/>
	<path fill="#F49819" d="M361.478,127.387c4.824,4.879,9.241,9.38,13.696,13.843c10.139,10.155,20.292,20.295,30.447,30.431
		c3.078,3.071,5.465,3.069,8.537-0.028c3.053-3.079,6.06-6.205,9.229-9.162c-4.577,22.124-30.688,32.404-47.323,18.601
		c-8.981-7.451-13.89-17.567-16.065-28.979c-1.418-7.436-1.101-14.84,0.703-22.184C360.853,129.3,361.069,128.707,361.478,127.387z"
		/>
	<path fill="#FFFFFF" d="M114.025,115.312c1.234-5.948,2.125-11.288,3.472-16.51c2.281-8.841,5.971-17.126,10.793-24.88
		c0.437-0.702,1.658-1.56,2.283-1.406c12.486,3.075,24.294,7.869,35.725,14.362c-2.686,1.587-5.175,3.005-7.611,4.508
		c-4.317,2.662-8.06,5.958-11.104,10.049c-0.46,0.618-1.383,1.166-2.144,1.245c-10.911,1.139-20.713,5.037-29.473,11.615
		C115.615,114.559,115.181,114.713,114.025,115.312z"/>
	<path fill="#F49819" d="M383.642,100.362c5.764-2.543,12.324-2.743,18.882-0.281c10.314,3.874,16.637,11.742,20.794,21.575
		c3.097,7.325,4.516,14.989,4.215,23.188C412.806,129.919,398.241,115.157,383.642,100.362z"/>
	<path fill="#FFFFFF" d="M213.613,114.581c38.677-9.68,77.486-10.299,116.813-1.58c-1.587,3.719-3.004,7.04-4.536,10.629
		c-2.354-0.952-4.648-1.868-6.935-2.805c-14.396-5.906-29.218-10.108-44.826-11.146c-14.229-0.946-28.323,0.389-42.36,2.561
		c-6.062,0.938-12.096,2.052-18.144,3.086C213.623,115.078,213.618,114.83,213.613,114.581z"/>
	<path fill="#FFFFFF" d="M373.776,75.02c3.694,5.136,7.024,9.765,10.463,14.545c-3.6,1.698-6.754,3.223-9.955,4.646
		c-0.383,0.17-1.067-0.11-1.52-0.354c-3.978-2.15-7.933-4.338-12.392-6.789C364.728,83.154,368.99,79.322,373.776,75.02z"/>
	<path fill="#FFFFFF" d="M250.277,368.484c-1.015-4.775,0.938-17.625,2.89-19.498c2.996,4.605,5.621,4.969,9.498,1.313
		c2.141,3.188-0.052,16.771-3.189,19.756C255.69,366.104,254.736,365.926,250.277,368.484z"/>
	<path fill="#FFFFFF" d="M243.727,411.291c-1.127-4.225-1.761-4.824-6.116-5.654c2.537-3.922,4.996-7.723,7.666-11.854
		c2.182,2.721,4.299,4.17,7.25,2.965C253.378,399.986,247.833,409.115,243.727,411.291z"/>
	<path fill="#FFFFFF" d="M199.151,419.631c4.429-0.738,8.68-1.447,13.583-2.264c-2.424,3.811-1.982,6.66,1.359,8.906
		c-0.028,0.246-0.056,0.494-0.084,0.74c-4.21,0.566-8.42,1.131-12.845,1.725C203.026,423.629,202.854,422.887,199.151,419.631z"/>
	<path fill="#F49819" d="M138.146,219.779c-1.445,2.503-2.709,4.84-4.147,7.064c-0.314,0.485-1.319,0.903-1.888,0.786
		c-4.905-1.018-4.899-1.057-4.047-5.895c0.263-1.495,0.545-2.987,0.869-4.755C132.015,217.915,134.907,218.795,138.146,219.779z"/>
	<path d="M318.38,366.176c0.157-1.992,0.185-4.113,0.514-6.188c1.166-7.365,0.277-14.531-1.853-21.605
		c-0.678-2.25-1.301-4.518-1.885-6.793c-0.53-2.07-0.066-3.928,1.701-5.201c1.818-1.311,3.684-1.162,5.693-0.088
		c3.196,1.709,6.393,3.594,9.821,4.652c6.16,1.9,11.672,0.199,16.296-4.303c0.522-0.51,1.013-1.057,1.561-1.535
		c2.615-2.299,6.037-2.035,7.623,1.072c2.883,5.646,7.177,7.549,13.198,6.063c0.699-0.172,1.447-0.197,2.175-0.205
		c2.268-0.025,3.973,0.973,4.714,3.123c0.763,2.217,0.162,4.133-1.797,5.564c-3.203,2.342-6.362,4.74-9.581,7.061
		c-4.81,3.463-7.517,8.297-9.515,13.746c-1.92,5.234-3.876,10.506-6.44,15.438c-2.743,5.27-6.991,9.221-13.256,10
		c-10.156,1.264-17.755-5.217-18.729-15.826C318.474,369.537,318.462,367.912,318.38,366.176z M327.723,339.703
		c0.438,4.5,1.126,8.662,1.175,12.83c0.049,4.193-0.692,8.393-0.787,12.594c-0.06,2.639,0.125,5.363,0.756,7.912
		c0.894,3.611,4.217,5.445,7.73,4.203c1.778-0.629,3.623-2,4.679-3.551c1.753-2.578,3.138-5.479,4.243-8.406
		c3.305-8.746,5.699-17.967,13.821-23.744c-2.404-1.965-4.562-3.727-6.803-5.557C344.949,341.57,336.599,342.59,327.723,339.703z"/>
	<path d="M366.714,290.375c-0.145,0.453-0.356,1.316-0.688,2.133c-2.354,5.766-4.693,11.537-7.115,17.275
		c-1.871,4.434-5.787,5.033-8.908,1.359c-4.399-5.184-8.719-10.436-13.096-15.641c-1.358-1.617-1.957-3.416-1.131-5.4
		c0.822-1.971,2.468-2.826,4.604-3.006c6.938-0.578,13.861-1.285,20.8-1.852C364.391,284.984,366.72,287.059,366.714,290.375z
		 M352.851,299.543c0.551-1.664,0.91-2.75,1.367-4.129c-1.654,0.193-2.814,0.328-4.406,0.514
		C350.866,297.184,351.657,298.123,352.851,299.543z"/>
	<path d="M393.751,269.574c-0.104,4.559-1.075,8.811-4.183,12.371c-4.146,4.75-10.689,4.871-14.897,0.23
		c-5.519-6.084-5.83-18.002-0.641-24.416c4.75-5.87,12.221-5.527,16.604,0.76C392.607,261.352,393.794,265.561,393.751,269.574z
		 M382.074,275.801c2.915-3.504,2.8-9.748-0.132-12.291C379.151,266.826,379.149,272.365,382.074,275.801z"/>
	<path d="M259.983,267.682c0.066-4.549,1.15-9.027,4.199-12.91c4.773-6.078,12.752-6.397,17.92-0.682
		c6.381,7.059,6.361,20.389-0.037,27.387c-4.99,5.455-12.618,5.346-17.463-0.262C261.313,277.406,260.099,272.867,259.983,267.682z
		 M277.788,267.844c-0.835-2.365-1.38-4.734-2.488-6.805c-1.043-1.947-2.437-1.82-3.799-0.088
		c-2.522,3.215-2.543,10.23-0.037,13.547c1.293,1.713,2.804,1.869,3.824,0.008C276.382,272.514,276.927,270.219,277.788,267.844z"/>
	<path fill="#634595" d="M327.723,339.703c8.876,2.887,17.227,1.865,24.814-3.719c2.241,1.83,4.397,3.592,6.803,5.557
		c-8.122,5.777-10.518,14.998-13.821,23.744c-1.105,2.93-2.49,5.828-4.243,8.406c-1.056,1.551-2.899,2.922-4.679,3.551
		c-3.515,1.242-6.838-0.592-7.73-4.203c-0.631-2.549-0.814-5.273-0.756-7.912c0.095-4.201,0.836-8.398,0.787-12.594
		C328.849,348.365,328.162,344.203,327.723,339.703z"/>
	<path fill="#634595" d="M352.851,299.543c-1.193-1.42-1.984-2.359-3.039-3.615c1.592-0.186,2.752-0.32,4.406-0.514
		C353.761,296.793,353.401,297.879,352.851,299.543z"/>
	<path fill="#634595" d="M382.074,275.801c-2.925-3.436-2.923-8.975-0.132-12.291C384.874,266.053,384.989,272.297,382.074,275.801z
		"/>
	<path fill="#634595" d="M277.788,267.844c-0.861,2.375-1.406,4.67-2.5,6.662c-1.021,1.861-2.531,1.705-3.824-0.008
		c-2.506-3.316-2.485-10.332,0.037-13.547c1.362-1.732,2.756-1.859,3.799,0.088C276.408,263.109,276.953,265.479,277.788,267.844z"
		/>
</g>
</svg>
