<?xml version="1.0" encoding="utf-8"?>
<!-- Generator: Adobe Illustrator 16.0.0, SVG Export Plug-In . SVG Version: 6.00 Build 0)  -->
<!DOCTYPE svg PUBLIC "-//W3C//DTD SVG 1.1//EN" "http://www.w3.org/Graphics/SVG/1.1/DTD/svg11.dtd">
<svg version="1.1" id="Calque_1" xmlns="http://www.w3.org/2000/svg" xmlns:xlink="http://www.w3.org/1999/xlink" x="0px" y="0px"
	 width="600px" height="200px" viewBox="0 0 600 200" enable-background="new 0 0 600 200" xml:space="preserve">
<g>
	<path fill="#F2CD37" d="M63.863,160.939c0-1.356,0-2.313,0-3.271c0-31.251,0.034-62.503-0.064-93.755
		c-0.008-2.507,0.797-3.028,3.104-3.228c19.578-1.691,39.142-3.545,58.714-5.305c13.853-1.245,27.714-2.393,41.567-3.631
		c14.9-1.333,29.794-2.736,44.693-4.081c17.154-1.548,34.313-3.046,51.466-4.602c13.85-1.256,27.692-2.598,41.544-3.842
		c16.834-1.511,33.676-2.938,50.51-4.44c15.945-1.423,31.891-2.886,47.83-4.353c15.062-1.387,30.113-2.834,45.177-4.195
		c15.382-1.39,30.771-2.686,46.153-4.061c10.872-0.972,21.738-2.007,32.606-3.009c0.793-0.073,1.589-0.113,2.598-0.183
		c0,32.603,0,65.015,0,97.83C374.659,131.504,219.508,146.199,63.863,160.939z"/>
	<path fill="#CFB02B" d="M58.277,107.945c-17.792,2.003-35.263,3.969-53.451,6.015c9.8-13.736,19.214-26.93,28.792-40.354
		c-9.79-10.957-19.562-21.893-29.782-33.331c24.739-2.549,48.874-5.035,73.639-7.587c-2.196,3.506-4.073,6.549-5.996,9.563
		c-4.002,6.273-8.08,12.499-11.999,18.823c-0.714,1.153-1.146,2.682-1.154,4.041c-0.084,13.277-0.051,26.555-0.05,39.833
		C58.277,105.829,58.277,106.712,58.277,107.945z"/>
	<path fill="#CFB02B" d="M515.591,146.581c1.31-2.099,2.335-3.79,3.405-5.455c4.854-7.55,9.769-15.063,14.535-22.668
		c0.762-1.215,1.237-2.828,1.249-4.261c0.093-13.439,0.086-26.879,0.019-40.318c-0.009-1.809,0.438-2.495,2.361-2.678
		c10.625-1.012,21.234-2.168,31.849-3.308c5.306-0.569,10.602-1.215,15.901-1.809c0.951-0.106,1.911-0.123,3.407-0.213
		c-9.686,13.506-19.087,26.622-28.639,39.941c9.718,10.947,19.415,21.875,29.583,33.332
		C564.519,141.643,540.329,144.084,515.591,146.581z"/>
</g>
</svg>
